<svg width="64" height="64" viewBox="0 0 64 64" fill="none" xmlns="http://www.w3.org/2000/svg">
<rect width="64" height="64" fill="white"/>
<path opacity="0.2" d="M21.2793 21.373C21.1302 21.3295 20.9731 21.3214 20.8204 21.3491C20.6676 21.3769 20.5235 21.4399 20.3993 21.533C20.2751 21.6262 20.1743 21.7469 20.1048 21.8858C20.0354 22.0246 19.9993 22.1778 19.9993 22.333V39.6663C19.9993 39.8216 20.0354 39.9747 20.1048 40.1136C20.1743 40.2524 20.2751 40.3732 20.3993 40.4663C20.5235 40.5595 20.6676 40.6224 20.8204 40.6502C20.9731 40.678 21.1302 40.6698 21.2793 40.6263L33 37.2078V24.7915L21.2793 21.373Z" fill="#564FFD"/>
<path d="M19.9993 22.333V39.6663C19.9993 39.8216 20.0354 39.9747 20.1048 40.1136C20.1743 40.2524 20.2751 40.3732 20.3993 40.4663C20.5235 40.5595 20.6676 40.6224 20.8204 40.6502C20.9731 40.678 21.1302 40.6698 21.2793 40.6263L43.2793 34.2097C43.487 34.1491 43.6694 34.0228 43.7993 33.8497C43.9291 33.6766 43.9993 33.466 43.9993 33.2497V28.7497C43.9993 28.5333 43.9291 28.3228 43.7993 28.1497C43.6694 27.9766 43.487 27.8503 43.2793 27.7897L21.2793 21.373C21.1302 21.3295 20.9731 21.3214 20.8204 21.3491C20.6676 21.3769 20.5235 21.4399 20.3993 21.533C20.2751 21.6262 20.1743 21.7469 20.1048 21.8858C20.0354 22.0246 19.9993 22.1778 19.9993 22.333V22.333Z" stroke="#564FFD" stroke-width="2" stroke-linecap="round" stroke-linejoin="round"/>
<path d="M39 35.4582V40.0001C39 40.2653 38.8946 40.5197 38.7071 40.7072C38.5196 40.8948 38.2652 41.0001 38 41.0001H34C33.7348 41.0001 33.4804 40.8948 33.2929 40.7072C33.1054 40.5197 33 40.2653 33 40.0001V24.792" stroke="#564FFD" stroke-width="2" stroke-linecap="round" stroke-linejoin="round"/>
</svg>
