<svg width="64" height="64" viewBox="0 0 64 64" fill="none" xmlns="http://www.w3.org/2000/svg">
<rect width="64" height="64" fill="#FF6636"/>
<path opacity="0.2" d="M21.9912 32H41.9912V34.5C41.9912 37.1522 40.9376 39.6957 39.0623 41.5711C37.1869 43.4464 34.6434 44.5 31.9912 44.5C29.339 44.5 26.7955 43.4464 24.9201 41.5711C23.0448 39.6957 21.9912 37.1522 21.9912 34.5V32Z" fill="white"/>
<path d="M41.9912 34.5C41.9912 37.1522 40.9376 39.6957 39.0623 41.5711C37.1869 43.4464 34.6434 44.5 31.9912 44.5C29.339 44.5 26.7955 43.4464 24.9201 41.5711C23.0448 39.6957 21.9912 37.1522 21.9912 34.5V29.5C21.9912 26.8478 23.0448 24.3043 24.9201 22.4289C26.7955 20.5536 29.339 19.5 31.9912 19.5C34.6434 19.5 37.1869 20.5536 39.0623 22.4289C40.9376 24.3043 41.9912 26.8478 41.9912 29.5V34.5Z" stroke="white" stroke-width="2" stroke-linecap="round" stroke-linejoin="round"/>
<path d="M41.9912 32H21.9912" stroke="white" stroke-width="2" stroke-linecap="round" stroke-linejoin="round"/>
<path d="M35.9912 27.5C35.9912 27.7761 35.7674 28 35.4912 28C35.2151 28 34.9912 27.7761 34.9912 27.5C34.9912 27.2239 35.2151 27 35.4912 27C35.7674 27 35.9912 27.2239 35.9912 27.5Z" fill="white" stroke="white" stroke-width="2"/>
<path d="M28.9912 27.5C28.9912 27.7761 28.7674 28 28.4912 28C28.2151 28 27.9912 27.7761 27.9912 27.5C27.9912 27.2239 28.2151 27 28.4912 27C28.7674 27 28.9912 27.2239 28.9912 27.5Z" fill="white" stroke="white" stroke-width="2"/>
<path d="M22.9912 19.5L25.5305 21.867" stroke="white" stroke-width="2" stroke-linecap="round" stroke-linejoin="round"/>
<path d="M40.9912 19.5L38.4519 21.8671" stroke="white" stroke-width="2" stroke-linecap="round" stroke-linejoin="round"/>
</svg>
