<svg width="64" height="64" viewBox="0 0 64 64" fill="none" xmlns="http://www.w3.org/2000/svg">
<rect width="64" height="64" fill="white"/>
<path opacity="0.2" d="M18.9993 28.1064H44.9993L45 39.9999C45 40.2651 44.8946 40.5195 44.7071 40.707C44.5196 40.8946 44.2652 40.9999 44 40.9999H20C19.7348 40.9999 19.4804 40.8946 19.2929 40.707C19.1054 40.5195 19 40.2651 19 39.9999L18.9993 28.1064Z" fill="#FD8E1F"/>
<path d="M44 23H20C19.4477 23 19 23.4477 19 24V40C19 40.5523 19.4477 41 20 41H44C44.5523 41 45 40.5523 45 40V24C45 23.4477 44.5523 23 44 23Z" stroke="#FD8E1F" stroke-width="2" stroke-linecap="round" stroke-linejoin="round"/>
<path d="M36.9993 37H40.9993" stroke="#FD8E1F" stroke-width="2" stroke-linecap="round" stroke-linejoin="round"/>
<path d="M30.9993 37H32.9993" stroke="#FD8E1F" stroke-width="2" stroke-linecap="round" stroke-linejoin="round"/>
<path d="M18.9993 28.1064H44.9993" stroke="#FD8E1F" stroke-width="2" stroke-linecap="round" stroke-linejoin="round"/>
</svg>
