<svg width="64" height="64" viewBox="0 0 64 64" fill="none" xmlns="http://www.w3.org/2000/svg">
<rect width="64" height="64" fill="white"/>
<path opacity="0.2" d="M31.0007 23L23.5411 25.7974C23.3768 25.859 23.2316 25.9627 23.1201 26.0982C23.0086 26.2337 22.9347 26.3962 22.9059 26.5693L20.0007 44L37.4315 41.0948C37.6045 41.066 37.767 40.9921 37.9025 40.8806C38.038 40.7691 38.1418 40.6239 38.2034 40.4596L41.0007 33L31.0007 23ZM30.5 35.9996C30.0056 35.9996 29.5222 35.853 29.1111 35.5782C28.7 35.3035 28.3795 34.9131 28.1903 34.4563C28.0011 33.9995 27.9516 33.4968 28.048 33.0118C28.1445 32.5269 28.3826 32.0814 28.7322 31.7318C29.0819 31.3822 29.5273 31.1441 30.0123 31.0476C30.4972 30.9511 30.9999 31.0007 31.4567 31.1899C31.9135 31.3791 32.304 31.6995 32.5787 32.1106C32.8534 32.5218 33 33.0051 33 33.4996C33 33.8279 32.9353 34.153 32.8097 34.4563C32.6841 34.7596 32.4999 35.0352 32.2678 35.2673C32.0356 35.4995 31.76 35.6836 31.4567 35.8093C31.1534 35.9349 30.8283 35.9996 30.5 35.9996Z" fill="#FF6636"/>
<path d="M30.5 36C31.8807 36 33 34.8807 33 33.5C33 32.1193 31.8807 31 30.5 31C29.1193 31 28 32.1193 28 33.5C28 34.8807 29.1193 36 30.5 36Z" stroke="#FF6636" stroke-width="2" stroke-linecap="round" stroke-linejoin="round"/>
<path d="M20.0007 44.0002L28.7322 35.2676" stroke="#FF6636" stroke-width="2" stroke-linecap="round" stroke-linejoin="round"/>
<path d="M20.0007 44L37.4314 41.0949C37.6045 41.066 37.767 40.9921 37.9025 40.8806C38.038 40.7691 38.1418 40.6239 38.2034 40.4596L41.0007 33L31.0007 23L23.5411 25.7974C23.3768 25.859 23.2316 25.9627 23.1201 26.0982C23.0086 26.2337 22.9347 26.3962 22.9059 26.5693L20.0007 44Z" stroke="#FF6636" stroke-width="2" stroke-linecap="round" stroke-linejoin="round"/>
<path d="M41.0007 33.0008L44.2936 29.7079C44.3865 29.6151 44.4601 29.5048 44.5104 29.3835C44.5607 29.2622 44.5865 29.1321 44.5865 29.0008C44.5865 28.8695 44.5607 28.7395 44.5104 28.6181C44.4601 28.4968 44.3865 28.3866 44.2936 28.2937L35.7078 19.7079C35.5203 19.5204 35.2659 19.415 35.0007 19.415C34.7355 19.415 34.4812 19.5204 34.2936 19.7079L31.0007 23.0008" stroke="#FF6636" stroke-width="2" stroke-linecap="round" stroke-linejoin="round"/>
</svg>
