<svg width="64" height="64" viewBox="0 0 64 64" fill="none" xmlns="http://www.w3.org/2000/svg">
<rect width="64" height="64" fill="white"/>
<path opacity="0.2" d="M20.1385 25.3271C20.0478 25.481 20 25.6563 20 25.8349V38.1652C20 38.3426 20.0472 38.5169 20.1368 38.67C20.2264 38.8232 20.3551 38.9498 20.5097 39.0368L31.5097 45.2243C31.6594 45.3085 31.8283 45.3527 32 45.3527L32.0013 45.3527L32.1186 32L20.1385 25.3272L20.1385 25.3271Z" fill="#FD8E1F"/>
<path d="M44 38.1653V25.835C44 25.6575 43.9528 25.4833 43.8632 25.3301C43.7736 25.1769 43.6449 25.0504 43.4903 24.9634L32.4903 18.7759C32.3406 18.6917 32.1717 18.6475 32 18.6475C31.8283 18.6475 31.6594 18.6917 31.5097 18.7759L20.5097 24.9634C20.3551 25.0504 20.2264 25.1769 20.1368 25.3301C20.0472 25.4833 20 25.6575 20 25.835V38.1653C20 38.3427 20.0472 38.5169 20.1368 38.6701C20.2264 38.8233 20.3551 38.9498 20.5097 39.0368L31.5097 45.2243C31.6594 45.3085 31.8283 45.3528 32 45.3528C32.1717 45.3528 32.3406 45.3085 32.4903 45.2243L43.4903 39.0368C43.6449 38.9498 43.7736 38.8233 43.8632 38.6701C43.9528 38.5169 44 38.3427 44 38.1653Z" stroke="#FD8E1F" stroke-width="2" stroke-linecap="round" stroke-linejoin="round"/>
<path d="M38.1278 35.0639V28.5639L26 21.875" stroke="#FD8E1F" stroke-width="2" stroke-linecap="round" stroke-linejoin="round"/>
<path d="M43.8621 25.3284L32.1186 32L20.1384 25.3271" stroke="#FD8E1F" stroke-width="2" stroke-linecap="round" stroke-linejoin="round"/>
<path d="M32.1186 32L32.0012 45.3527" stroke="#FD8E1F" stroke-width="2" stroke-linecap="round" stroke-linejoin="round"/>
</svg>
