<svg width="34" height="8" viewBox="0 0 34 8" fill="none" xmlns="http://www.w3.org/2000/svg">
<path d="M14.6887 7.01417H13.1862L11.3633 4.74045V7.01417H10.0711V0.00270971H11.3633V4.20959L13.0861 2.00598H14.6286L12.6153 4.48003L14.6887 7.01417Z" fill="#DFE3FF"/>
<path d="M18.0428 2.00598H19.3349V7.01417H18.0428V6.45325C17.7289 6.92068 17.2314 7.1544 16.5503 7.1544C16.0028 7.1544 15.5487 6.97077 15.1881 6.6035C14.8342 6.23623 14.6572 5.72874 14.6572 5.08101V2.00598H15.9493V4.92075C15.9493 5.25463 16.0395 5.51171 16.2198 5.69201C16.4001 5.86563 16.6405 5.95243 16.941 5.95243C17.2748 5.95243 17.542 5.84893 17.7423 5.64193C17.9426 5.43492 18.0428 5.12441 18.0428 4.7104V2.00598Z" fill="#DFE3FF"/>
<path d="M23.9139 0.00270971H25.206V7.01417H23.9139V6.4232C23.5332 6.91067 22.9923 7.1544 22.2912 7.1544C21.6168 7.1544 21.0392 6.90065 20.5584 6.39316C20.0843 5.87898 19.8472 5.25129 19.8472 4.51008C19.8472 3.76887 20.0843 3.14451 20.5584 2.63702C21.0392 2.12284 21.6168 1.86576 22.2912 1.86576C22.9923 1.86576 23.5332 2.10949 23.9139 2.59695V0.00270971ZM21.53 5.53175C21.7971 5.79217 22.1309 5.92239 22.5316 5.92239C22.9322 5.92239 23.2628 5.79217 23.5232 5.53175C23.7836 5.26464 23.9139 4.92409 23.9139 4.51008C23.9139 4.09607 23.7836 3.75885 23.5232 3.49842C23.2628 3.23132 22.9322 3.09777 22.5316 3.09777C22.1309 3.09777 21.7971 3.23132 21.53 3.49842C21.2695 3.75885 21.1393 4.09607 21.1393 4.51008C21.1393 4.92409 21.2695 5.26464 21.53 5.53175Z" fill="#DFE3FF"/>
<path d="M29.7932 2.00598H31.0853V7.01417H29.7932V6.4232C29.4059 6.91067 28.8617 7.1544 28.1606 7.1544C27.4928 7.1544 26.9185 6.90065 26.4377 6.39316C25.9636 5.87898 25.7266 5.25129 25.7266 4.51008C25.7266 3.76887 25.9636 3.14451 26.4377 2.63702C26.9185 2.12284 27.4928 1.86576 28.1606 1.86576C28.8617 1.86576 29.4059 2.10949 29.7932 2.59695V2.00598ZM27.4093 5.53175C27.6698 5.79217 28.0003 5.92239 28.401 5.92239C28.8016 5.92239 29.1321 5.79217 29.3926 5.53175C29.6597 5.26464 29.7932 4.92409 29.7932 4.51008C29.7932 4.09607 29.6597 3.75885 29.3926 3.49842C29.1321 3.23132 28.8016 3.09777 28.401 3.09777C28.0003 3.09777 27.6698 3.23132 27.4093 3.49842C27.1489 3.75885 27.0187 4.09607 27.0187 4.51008C27.0187 4.92409 27.1489 5.26464 27.4093 5.53175Z" fill="#DFE3FF"/>
<path d="M33.2086 6.89397C33.0416 7.06091 32.8413 7.14438 32.6076 7.14438C32.3739 7.14438 32.1736 7.06091 32.0066 6.89397C31.8397 6.72703 31.7562 6.52671 31.7562 6.29299C31.7562 6.05928 31.8397 5.85895 32.0066 5.69201C32.1736 5.52507 32.3739 5.4416 32.6076 5.4416C32.8413 5.4416 33.0416 5.52507 33.2086 5.69201C33.3755 5.85895 33.459 6.05928 33.459 6.29299C33.459 6.52671 33.3755 6.72703 33.2086 6.89397Z" fill="#DFE3FF"/>
<path d="M5.33851 0H6.92055L4.25205 3.50709L6.92055 7.01417H5.33851L2.67002 3.50709L5.33851 0Z" fill="#DFE3FF"/>
<path d="M3.43245 0H4.53796L2.6319 3.50709L4.53796 7.01417H3.43245L1.52638 3.50709L3.43245 0Z" fill="#DFE3FF"/>
<path d="M2.28881 0H2.91781L1.48826 3.50709L2.91781 7.01417H2.28881L0.859258 3.50709L2.28881 0Z" fill="#DFE3FF"/>
<path d="M0.458984 0H0.811606V7.01417H0.458984V0Z" fill="#DFE3FF"/>
</svg>
