<svg width="99" height="22" viewBox="0 0 99 22" fill="none" xmlns="http://www.w3.org/2000/svg">
<path d="M58.4163 6.81538V21.764H54.0793V19.5807C53.6072 20.3675 52.9876 20.9674 52.2205 21.3804C51.4534 21.7935 50.588 22 49.6242 22C47.7556 22 46.3591 21.4788 45.4347 20.4363C44.5102 19.3938 44.048 17.8203 44.048 15.7157V6.81538H48.5031V15.8042C48.5031 17.6138 49.28 18.5186 50.8339 18.5186C51.7583 18.5186 52.5057 18.2038 53.0761 17.5744C53.6465 16.945 53.9317 16.1189 53.9317 15.0961V6.81538H58.4163ZM75.4105 0V21.764H71.0145V19.5512C70.5621 20.3183 69.9228 20.9182 69.0967 21.3509C68.2706 21.7836 67.3363 22 66.2938 22C65.0153 22 63.8745 21.6755 62.8714 21.0165C61.8683 20.3576 61.0913 19.4332 60.5308 18.2432C59.9702 17.0532 59.6948 15.696 59.6948 14.1618C59.6948 12.6276 59.9702 11.2803 60.5308 10.11C61.0913 8.93965 61.8683 8.03487 62.8616 7.39562C63.8549 6.75637 64.9957 6.44166 66.2938 6.44166C67.297 6.44166 68.2116 6.65802 69.0377 7.07108C69.8638 7.49396 70.5031 8.07421 70.9554 8.82164V0H75.4105ZM70.1293 17.4761C70.7194 16.7188 71.0145 15.637 71.0145 14.2208C71.0145 12.8243 70.7194 11.7523 70.1195 10.9951C69.5196 10.2378 68.6837 9.8641 67.6018 9.8641C66.5004 9.8641 65.6448 10.2378 65.035 10.9852C64.4253 11.7327 64.1204 12.7948 64.1204 14.1717C64.1204 15.5878 64.4253 16.6795 65.035 17.4564C65.6448 18.2333 66.5004 18.6169 67.6018 18.6169C68.7033 18.6071 69.5393 18.2333 70.1293 17.4761ZM92.4145 6.81538V21.764H88.0185V19.5512C87.5661 20.3183 86.9268 20.9182 86.1007 21.3509C85.2746 21.7836 84.3403 22 83.2979 22C81.9997 22 80.8589 21.6853 79.8656 21.0559C78.8723 20.4265 78.0954 19.5315 77.5348 18.3612C76.9742 17.1909 76.6988 15.8435 76.6988 14.3093C76.6988 12.7751 76.9742 11.4081 77.5348 10.2083C78.0954 9.00849 78.8723 8.08404 79.8754 7.42512C80.8786 6.7662 82.0194 6.44166 83.2979 6.44166C84.3403 6.44166 85.2746 6.66786 86.1007 7.12025C86.9268 7.57264 87.5661 8.18239 88.0185 8.94949V6.81538H92.4145ZM87.1334 17.4859C87.7234 16.7385 88.0185 15.6567 88.0185 14.2405C88.0185 12.8243 87.7234 11.7425 87.1334 10.9852C86.5433 10.228 85.6975 9.85427 84.596 9.85427C83.4946 9.85427 82.6389 10.2477 82.0292 11.0344C81.4195 11.8212 81.1146 12.9128 81.1146 14.3093C81.1146 15.7059 81.4096 16.768 82.0095 17.5056C82.6094 18.2432 83.4651 18.6071 84.5862 18.6071C85.6975 18.6071 86.5433 18.2333 87.1334 17.4859ZM43.153 21.9803H37.626L31.6859 15.2043V21.9803H27.1816V0H31.6859V13.3456L37.3605 6.86455H42.7695L36.3475 14.1225L43.153 21.9803Z" fill="#40196D"/>
<path d="M14.8207 21.9803L6.17613 12.0277L10.8967 21.9803H7.62181L2.80286 11.831L4.80912 21.9803H2.79303L0.786768 11.8114V21.9803H0V0H0.786768V10.9656L2.82253 0H4.82879L2.78319 11.0148L7.70049 0H10.9361L6.04828 10.9754L14.9289 0H20.0134L10.8181 11.3491L20.0527 21.9803H14.8207Z" fill="#40196D"/>
<path d="M96.1443 21.7447C97.4913 21.7447 98.5833 20.6527 98.5833 19.3057C98.5833 17.9587 97.4913 16.8667 96.1443 16.8667C94.7973 16.8667 93.7053 17.9587 93.7053 19.3057C93.7053 20.6527 94.7973 21.7447 96.1443 21.7447Z" fill="#40196D"/>
</svg>
