<svg width="29" height="29" viewBox="0 0 29 29" fill="none" xmlns="http://www.w3.org/2000/svg">
<circle cx="14.5" cy="14.5" r="13.5" fill="#EFF1FF" stroke="#40196D" stroke-width="0.5"/>
<g clip-path="url(#clip0_452_572)">
<g clip-path="url(#clip1_452_572)">
<path d="M8.23359 13.002H10.8742V20.9848H8.23359V13.002ZM17.6891 12.7379C16.5312 12.7379 15.8406 13.1645 15.1094 14.0989V13.002H12.4688V20.9848H15.1297V16.6583C15.1297 15.7442 15.5969 14.8504 16.6531 14.8504C17.7094 14.8504 18.3391 15.7442 18.3391 16.6379V20.9848H21V16.4551C21 13.3067 18.8672 12.7379 17.6891 12.7379ZM9.56406 9.12231C8.69063 9.12231 8 9.752 8 10.5239C8 11.2958 8.69063 11.9254 9.56406 11.9254C10.4375 11.9254 11.1281 11.2958 11.1281 10.5239C11.1281 9.752 10.4375 9.12231 9.56406 9.12231Z" fill="#40196D"/>
</g>
</g>
<defs>
<clipPath id="clip0_452_572">
<rect width="12.9231" height="14" fill="white" transform="translate(8 8.00049)"/>
</clipPath>
<clipPath id="clip1_452_572">
<rect width="13" height="12.0714" fill="white" transform="translate(8 9.00049)"/>
</clipPath>
</defs>
</svg>
