<svg width="29" height="29" viewBox="0 0 29 29" fill="none" xmlns="http://www.w3.org/2000/svg">
<circle cx="14.5" cy="14.5" r="13.5" fill="#EFF1FF" stroke="#40196D" stroke-width="0.5"/>
<g clip-path="url(#clip0_452_546)">
<path fill-rule="evenodd" clip-rule="evenodd" d="M19.7217 12.0628C19.7217 15.5781 17.0157 19.6301 12.0669 19.6301C10.6003 19.6293 9.16613 19.214 7.94263 18.4355C8.15561 18.4585 8.36968 18.4708 8.58399 18.4724C9.80114 18.4724 10.9812 18.0692 11.9258 17.3304C10.7625 17.3029 9.74858 16.5604 9.41071 15.4886C9.57781 15.5204 9.74777 15.5363 9.91811 15.536C10.1585 15.5368 10.3978 15.5049 10.6289 15.4413C9.35838 15.1756 8.45638 14.0877 8.46917 12.8364C8.84287 13.0065 9.2609 13.1201 9.68901 13.1363C8.50273 12.3352 8.14238 10.798 8.85628 9.58424C10.2022 11.2364 12.2235 12.2492 14.4016 12.3628C14.3553 12.1641 14.332 11.9612 14.3322 11.7576C14.3127 10.3087 15.5174 9.11887 17.0228 9.1001C17.7704 9.10044 18.4831 9.40424 18.9857 9.93681C19.5907 9.82195 20.1696 9.60457 20.6955 9.29481C20.4987 9.90617 20.0778 10.4279 19.5112 10.763C20.0455 10.7014 20.5668 10.5612 21.0569 10.3473C20.6976 10.8779 20.2433 11.343 19.7151 11.7208C19.7201 11.8365 19.7217 11.9523 19.7217 12.0628Z" fill="#40196D"/>
</g>
<defs>
<clipPath id="clip0_452_546">
<rect width="13.1143" height="10.8" fill="white" transform="translate(7.94263 9.1001)"/>
</clipPath>
</defs>
</svg>
