<svg width="29" height="29" viewBox="0 0 29 29" fill="none" xmlns="http://www.w3.org/2000/svg">
<circle cx="14.5" cy="14.5" r="13.5" fill="#EFF1FF" stroke="#40196D" stroke-width="0.5"/>
<g clip-path="url(#clip0_452_563)">
<path d="M21.0079 12.0543C21.0079 10.9116 20.1674 9.9923 19.1287 9.9923C17.7219 9.92627 16.2871 9.90088 14.8219 9.90088C14.7457 9.90088 14.6695 9.90088 14.5933 9.90088C14.5172 9.90088 14.441 9.90088 14.3648 9.90088C12.9021 9.90088 11.4648 9.92627 10.0579 9.9923C9.02187 9.9923 8.18132 10.9166 8.18132 12.0594C8.11784 12.9634 8.0899 13.8674 8.09244 14.7715C8.0899 15.6755 8.11784 16.5795 8.17878 17.4861C8.17878 18.6288 9.01933 19.5557 10.0554 19.5557C11.5333 19.6243 13.0494 19.6548 14.5908 19.6522C16.1348 19.6573 17.6457 19.6268 19.1262 19.5557C20.1648 19.5557 21.0054 18.6288 21.0054 17.4861C21.0663 16.5795 21.0942 15.6755 21.0917 14.7689C21.0968 13.8649 21.0688 12.9609 21.0079 12.0543ZM13.349 17.2626V12.2727L17.0312 14.7664L13.349 17.2626Z" fill="#40196D"/>
</g>
<defs>
<clipPath id="clip0_452_563">
<rect width="12.9231" height="14" fill="white" transform="translate(8 8.00049)"/>
</clipPath>
</defs>
</svg>
