<svg width="64" height="64" viewBox="0 0 64 64" fill="none" xmlns="http://www.w3.org/2000/svg">
<rect width="64" height="64" fill="white"/>
<path opacity="0.2" d="M20 33V40C20 40.5304 20.2107 41.0391 20.5858 41.4142C20.9609 41.7893 21.4696 42 22 42H24C24.5304 42 25.0391 41.7893 25.4142 41.4142C25.7893 41.0391 26 40.5304 26 40V35C26 34.4696 25.7893 33.9609 25.4142 33.5858C25.0391 33.2107 24.5304 33 24 33H20Z" fill="#FD8E1F"/>
<path opacity="0.2" d="M40.1821 34H43.1821V40C43.1821 40.2652 43.0768 40.5196 42.8892 40.7071C42.7017 40.8946 42.4473 41 42.1821 41H40.1821C39.9169 41 39.6626 40.8946 39.475 40.7071C39.2875 40.5196 39.1821 40.2652 39.1821 40V35C39.1821 34.7348 39.2875 34.4804 39.475 34.2929C39.6626 34.1054 39.9169 34 40.1821 34Z" fill="#FD8E1F" stroke="#FD8E1F" stroke-width="2"/>
<path d="M44.182 33H40.182C39.6515 33 39.1428 33.2107 38.7678 33.5858C38.3927 33.9609 38.182 34.4696 38.182 35V40C38.182 40.5304 38.3927 41.0391 38.7678 41.4142C39.1428 41.7893 39.6515 42 40.182 42H42.182C42.7124 42 43.2211 41.7893 43.5962 41.4142C43.9713 41.0391 44.182 40.5304 44.182 40V33ZM44.182 33C44.182 31.4165 43.8686 29.8486 43.2598 28.3868C42.651 26.925 41.759 25.5981 40.635 24.4826C39.5111 23.3672 38.1775 22.4852 36.7111 21.8875C35.2447 21.2899 33.6745 20.9883 32.091 21.0003C30.5075 20.9883 28.9373 21.2899 27.4709 21.8875C26.0045 22.4852 24.6709 23.3672 23.5469 24.4826C22.423 25.5981 21.5309 26.925 20.9222 28.3868C20.3134 29.8486 20 31.4165 20 33V40C20 40.5304 20.2107 41.0391 20.5858 41.4142C20.9609 41.7893 21.4696 42 22 42H24C24.5304 42 25.0391 41.7893 25.4142 41.4142C25.7893 41.0391 26 40.5304 26 40V35C26 34.4696 25.7893 33.9609 25.4142 33.5858C25.0391 33.2107 24.5304 33 24 33H20" stroke="#FD8E1F" stroke-width="2" stroke-linecap="round" stroke-linejoin="round"/>
</svg>
