<svg width="64" height="64" viewBox="0 0 64 64" fill="none" xmlns="http://www.w3.org/2000/svg">
<rect width="64" height="64" fill="white"/>
<path opacity="0.2" d="M42 24H37.9993L35.9993 21H27.9993L25.9993 24H22C21.4696 24 20.9609 24.2107 20.5858 24.5858C20.2107 24.9609 20 25.4696 20 26V40C20 40.5304 20.2107 41.0391 20.5858 41.4142C20.9609 41.7893 21.4696 42 22 42H42C42.5304 42 43.0391 41.7893 43.4142 41.4142C43.7893 41.0391 44 40.5304 44 40V26C44 25.4696 43.7893 24.9609 43.4142 24.5858C43.0391 24.2107 42.5304 24 42 24ZM32 37C31.11 37 30.24 36.7361 29.4999 36.2416C28.7599 35.7471 28.1831 35.0443 27.8425 34.2221C27.5019 33.3998 27.4128 32.495 27.5865 31.6221C27.7601 30.7492 28.1887 29.9474 28.818 29.318C29.4474 28.6887 30.2492 28.2601 31.1221 28.0865C31.995 27.9128 32.8998 28.0019 33.7221 28.3425C34.5443 28.6831 35.2471 29.2599 35.7416 29.9999C36.2361 30.74 36.5 31.61 36.5 32.5C36.5 33.6935 36.0259 34.8381 35.182 35.682C34.3381 36.5259 33.1935 37 32 37Z" fill="#1D2026"/>
<path d="M42 42H22C21.4696 42 20.9609 41.7893 20.5858 41.4142C20.2107 41.0391 20 40.5304 20 40V26C20 25.4696 20.2107 24.9609 20.5858 24.5858C20.9609 24.2107 21.4696 24 22 24H25.9993L27.9993 21H35.9993L37.9993 24H42C42.5304 24 43.0391 24.2107 43.4142 24.5858C43.7893 24.9609 44 25.4696 44 26V40C44 40.5304 43.7893 41.0391 43.4142 41.4142C43.0391 41.7893 42.5304 42 42 42Z" stroke="#1D2026" stroke-width="2" stroke-linecap="round" stroke-linejoin="round"/>
<path d="M32 37C34.4853 37 36.5 34.9853 36.5 32.5C36.5 30.0147 34.4853 28 32 28C29.5147 28 27.5 30.0147 27.5 32.5C27.5 34.9853 29.5147 37 32 37Z" stroke="#1D2026" stroke-width="2" stroke-linecap="round" stroke-linejoin="round"/>
</svg>
