<svg width="64" height="64" viewBox="0 0 64 64" fill="none" xmlns="http://www.w3.org/2000/svg">
<rect width="64" height="64" fill="white"/>
<path opacity="0.2" d="M41 35.1076L36.4004 39.7072C36.2783 39.8294 36.1266 39.9178 35.9602 39.9639C35.7938 40.01 35.6182 40.0122 35.4507 39.9703L28.2061 38.1591C28.0702 38.1252 27.943 38.063 27.8326 37.9767L21 32.6339L25.0718 24.9736L31.4868 23.1034C31.716 23.0366 31.9614 23.054 32.1789 23.1524L36.5 25.1076H33.9142C33.7829 25.1076 33.6529 25.1335 33.5315 25.1837C33.4102 25.234 33.3 25.3076 33.2071 25.4005L28.3153 30.2923C28.214 30.3936 28.1356 30.5155 28.0855 30.6497C28.0354 30.784 28.0148 30.9274 28.0249 31.0703C28.0351 31.2132 28.0758 31.3523 28.1444 31.4781C28.213 31.6039 28.3078 31.7134 28.4224 31.7994L29.1 32.3076C29.7924 32.8269 30.6345 33.1076 31.5 33.1076C32.3655 33.1076 33.2076 32.8269 33.9 32.3076L35.5 31.1076L41 35.1076Z" fill="#23BD33"/>
<path d="M46.0897 31.223L43 32.7678L39 25.1076L42.1212 23.547C42.3557 23.4297 42.6268 23.4093 42.8763 23.49C43.1257 23.5707 43.3335 23.7461 43.4548 23.9785L46.5289 29.8657C46.5904 29.9834 46.6278 30.1122 46.639 30.2445C46.6501 30.3768 46.6348 30.5101 46.5939 30.6364C46.553 30.7628 46.4874 30.8797 46.4008 30.9804C46.3143 31.0811 46.2085 31.1636 46.0897 31.223V31.223Z" stroke="#23BD33" stroke-width="2" stroke-linecap="round" stroke-linejoin="round"/>
<path d="M20.9999 32.634L17.9102 31.0892C17.7914 31.0298 17.6857 30.9473 17.5991 30.8466C17.5125 30.7459 17.4469 30.629 17.406 30.5026C17.3651 30.3763 17.3498 30.243 17.361 30.1107C17.3721 29.9784 17.4095 29.8496 17.471 29.7319L20.5451 23.8448C20.6665 23.6124 20.8742 23.4369 21.1237 23.3562C21.3731 23.2755 21.6443 23.2959 21.8788 23.4132L24.9999 24.9738L20.9999 32.634Z" stroke="#23BD33" stroke-width="2" stroke-linecap="round" stroke-linejoin="round"/>
<path d="M43 32.7678L41 35.1075L36.4004 39.7072C36.2783 39.8293 36.1266 39.9177 35.9602 39.9638C35.7938 40.0099 35.6182 40.0121 35.4507 39.9702L28.2061 38.159C28.0702 38.1251 27.943 38.0629 27.8326 37.9766L21 32.6338" stroke="#23BD33" stroke-width="2" stroke-linecap="round" stroke-linejoin="round"/>
<path d="M41.0001 35.1074L35.5001 31.1074L33.9001 32.3074C33.2077 32.8267 32.3655 33.1074 31.5001 33.1074C30.6346 33.1074 29.7924 32.8267 29.1001 32.3074L28.4225 31.7992C28.3078 31.7133 28.213 31.6037 28.1445 31.4779C28.0759 31.3521 28.0351 31.213 28.025 31.0701C28.0148 30.9272 28.0355 30.7838 28.0856 30.6496C28.1357 30.5153 28.214 30.3934 28.3154 30.2921L33.2072 25.4003C33.3 25.3075 33.4103 25.2338 33.5316 25.1835C33.6529 25.1333 33.7829 25.1074 33.9143 25.1074H39.0001" stroke="#23BD33" stroke-width="2" stroke-linecap="round" stroke-linejoin="round"/>
<path d="M25.0715 24.9736L31.4865 23.1034C31.7157 23.0366 31.9612 23.054 32.1787 23.1524L36.4997 25.1076" stroke="#23BD33" stroke-width="2" stroke-linecap="round" stroke-linejoin="round"/>
<path d="M30 42.6077L26.2326 41.6658C26.0797 41.6276 25.938 41.5538 25.8191 41.4504L23 39" stroke="#23BD33" stroke-width="2" stroke-linecap="round" stroke-linejoin="round"/>
</svg>
