<svg width="29" height="28" viewBox="0 0 29 28" fill="none" xmlns="http://www.w3.org/2000/svg">
<path d="M28 14C28 21.4558 21.9558 27.5 14.5 27.5C7.04416 27.5 1 21.4558 1 14C1 6.54416 7.04416 0.5 14.5 0.5C21.9558 0.5 28 6.54416 28 14Z" fill="#EFF1FF" stroke="#40196D" stroke-width="0.5"/>
<path fill-rule="evenodd" clip-rule="evenodd" d="M13.9423 8C12.3286 8 12.1262 8.0071 11.4922 8.03587C10.8598 8.06502 10.4278 8.16628 10.0501 8.31388C9.65903 8.4667 9.32774 8.67109 8.99757 9.00365C8.66703 9.33584 8.46387 9.66914 8.31197 10.0626C8.1649 10.4426 8.06462 10.8772 8.03565 11.5135C8.00669 12.1514 8 12.355 8 13.9786C8 15.6025 8.00669 15.8061 8.03565 16.4436C8.06462 17.08 8.1649 17.5145 8.31197 17.8949C8.46387 18.288 8.66703 18.6213 8.99757 18.9539C9.32774 19.286 9.65903 19.4904 10.0501 19.6433C10.4278 19.7912 10.8598 19.8921 11.4922 19.9213C12.1262 19.9504 12.3286 19.9571 13.9423 19.9571C15.5561 19.9571 15.7585 19.9504 16.3924 19.9213C17.0249 19.8921 17.4569 19.7912 17.8346 19.6433C18.2256 19.4904 18.5569 19.286 18.8871 18.9539C19.2176 18.6213 19.4208 18.288 19.5727 17.8949C19.7198 17.5145 19.8201 17.08 19.849 16.4436C19.878 15.8061 19.8847 15.6025 19.8847 13.9786C19.8847 12.355 19.878 12.1514 19.849 11.5135C19.8201 10.8772 19.7198 10.4426 19.5727 10.0626C19.4208 9.66914 19.2176 9.33584 18.8871 9.00365C18.5569 8.67109 18.2256 8.4667 17.8346 8.31388C17.4569 8.16628 17.0249 8.06502 16.3924 8.03587C15.7585 8.0071 15.5561 8 13.9423 8ZM13.9423 9.07726C15.5289 9.07726 15.7169 9.08324 16.3434 9.11201C16.9228 9.13854 17.2377 9.23607 17.4472 9.3179C17.7243 9.42626 17.9222 9.55592 18.1302 9.76517C18.3382 9.97442 18.4671 10.1736 18.5748 10.4523C18.6561 10.6631 18.753 10.9799 18.7794 11.5629C18.808 12.1932 18.8139 12.3823 18.8139 13.9786C18.8139 15.5749 18.808 15.7639 18.7794 16.3943C18.753 16.9772 18.6561 17.2941 18.5748 17.5048C18.4671 17.7836 18.3382 17.9827 18.1302 18.192C17.9222 18.4012 17.7243 18.5309 17.4472 18.6392C17.2377 18.7211 16.9228 18.8186 16.3434 18.8451C15.7169 18.8739 15.5289 18.8799 13.9423 18.8799C12.3557 18.8799 12.1678 18.8739 11.5413 18.8451C10.9619 18.8186 10.6469 18.7211 10.4375 18.6392C10.1604 18.5309 9.96246 18.4012 9.75448 18.192C9.54649 17.9827 9.41762 17.7836 9.30991 17.5048C9.22858 17.2941 9.13164 16.9772 9.10527 16.3943C9.07668 15.7639 9.07073 15.5749 9.07073 13.9786C9.07073 12.3823 9.07668 12.1932 9.10527 11.5629C9.13164 10.9799 9.22858 10.6631 9.30991 10.4523C9.41762 10.1736 9.54649 9.97442 9.75448 9.76517C9.96246 9.55592 10.1604 9.42626 10.4375 9.3179C10.6469 9.23607 10.9619 9.13854 11.5413 9.11201C12.1678 9.08324 12.3557 9.07726 13.9423 9.07726Z" fill="#40196D"/>
<path fill-rule="evenodd" clip-rule="evenodd" d="M14.0784 15.919C12.9534 15.919 12.0411 15.0502 12.0411 13.9787C12.0411 12.9069 12.9534 12.0381 14.0784 12.0381C15.2035 12.0381 16.1158 12.9069 16.1158 13.9787C16.1158 15.0502 15.2035 15.919 14.0784 15.919ZM14.0784 10.9893C12.3448 10.9893 10.9397 12.3277 10.9397 13.9787C10.9397 15.6297 12.3448 16.9678 14.0784 16.9678C15.8121 16.9678 17.2172 15.6297 17.2172 13.9787C17.2172 12.3277 15.8121 10.9893 14.0784 10.9893Z" fill="#40196D"/>
<path fill-rule="evenodd" clip-rule="evenodd" d="M17.815 10.8396C17.815 11.2522 17.4802 11.5869 17.0676 11.5869C16.6551 11.5869 16.3203 11.2522 16.3203 10.8396C16.3203 10.4266 16.6551 10.0923 17.0676 10.0923C17.4802 10.0923 17.815 10.4266 17.815 10.8396Z" fill="#40196D"/>
</svg>
