<svg width="24" height="26" viewBox="0 0 24 26" fill="none" xmlns="http://www.w3.org/2000/svg">
<path d="M1.104 0.539727C0.785234 0.933782 0.627971 1.43417 0.663998 1.93973V24.0597C0.629972 24.5701 0.798892 25.0733 1.134 25.4597L1.204 25.5397L13.564 13.1497V12.8497L1.174 0.469727L1.104 0.539727Z" fill="url(#paint0_linear_606_1265)"/>
<path d="M17.664 17.2797L13.564 13.1497V12.8497L17.664 8.71973L17.754 8.77973L22.664 11.5597C24.064 12.3497 24.064 13.6497 22.664 14.4497L17.774 17.2297L17.664 17.2797Z" fill="url(#paint1_linear_606_1265)"/>
<path d="M17.784 17.23L13.564 13L1.104 25.46C1.38658 25.7115 1.74827 25.8562 2.12636 25.869C2.50444 25.8818 2.87508 25.7619 3.174 25.53L17.784 17.23" fill="url(#paint2_linear_606_1265)"/>
<path d="M17.784 8.77997L3.174 0.47997C2.87703 0.244884 2.50668 0.122027 2.12808 0.133001C1.74948 0.143975 1.38686 0.288077 1.104 0.53997L13.564 13L17.784 8.77997Z" fill="url(#paint3_linear_606_1265)"/>
<path opacity="0.2" d="M17.664 17.1299L3.174 25.3799C2.88595 25.5973 2.53489 25.7149 2.174 25.7149C1.81312 25.7149 1.46206 25.5973 1.174 25.3799V25.3799L1.104 25.4499L1.174 25.5299C1.46206 25.7473 1.81312 25.8649 2.174 25.8649C2.53489 25.8649 2.88595 25.7473 3.174 25.5299L17.784 17.2299L17.664 17.1299Z" fill="black"/>
<path opacity="0.12" d="M1.10394 25.3202C0.782734 24.9235 0.625322 24.4191 0.66394 23.9102V24.0602C0.629914 24.5705 0.798834 25.0737 1.13394 25.4602L1.20394 25.3902L1.10394 25.3202Z" fill="black"/>
<path opacity="0.12" d="M22.6641 14.3L17.6641 17.13L17.7541 17.23L22.6641 14.44C22.9539 14.3174 23.2053 14.119 23.3919 13.8656C23.5784 13.6122 23.6932 13.3132 23.7241 13C23.6615 13.2846 23.533 13.5505 23.3489 13.7763C23.1648 14.0021 22.9302 14.1815 22.6641 14.3Z" fill="black"/>
<path opacity="0.25" d="M3.17406 0.619978L22.6641 11.7C22.9302 11.8185 23.1648 11.9979 23.3489 12.2237C23.533 12.4495 23.6615 12.7154 23.7241 13C23.6932 12.6868 23.5784 12.3878 23.3919 12.1344C23.2053 11.881 22.9539 11.6825 22.6641 11.56L3.17406 0.479978C1.78406 -0.320022 0.664062 0.339978 0.664062 1.93998V2.08998C0.664062 0.489978 1.78406 -0.170022 3.17406 0.619978Z" fill="white"/>
<defs>
<linearGradient id="paint0_linear_606_1265" x1="12.464" y1="1.70973" x2="-4.316" y2="18.4897" gradientUnits="userSpaceOnUse">
<stop stop-color="#00A0FF"/>
<stop offset="0.01" stop-color="#00A1FF"/>
<stop offset="0.26" stop-color="#00BEFF"/>
<stop offset="0.51" stop-color="#00D2FF"/>
<stop offset="0.76" stop-color="#00DFFF"/>
<stop offset="1" stop-color="#00E3FF"/>
</linearGradient>
<linearGradient id="paint1_linear_606_1265" x1="24.494" y1="12.9997" x2="0.303964" y2="12.9997" gradientUnits="userSpaceOnUse">
<stop stop-color="#FFE000"/>
<stop offset="0.41" stop-color="#FFBD00"/>
<stop offset="0.78" stop-color="#FFA500"/>
<stop offset="1" stop-color="#FF9C00"/>
</linearGradient>
<linearGradient id="paint2_linear_606_1265" x1="15.494" y1="15.3" x2="-7.266" y2="38.05" gradientUnits="userSpaceOnUse">
<stop stop-color="#FF3A44"/>
<stop offset="1" stop-color="#C31162"/>
</linearGradient>
<linearGradient id="paint3_linear_606_1265" x1="-2.036" y1="-6.82003" x2="8.124" y2="3.33997" gradientUnits="userSpaceOnUse">
<stop stop-color="#32A071"/>
<stop offset="0.07" stop-color="#2DA771"/>
<stop offset="0.48" stop-color="#15CF74"/>
<stop offset="0.8" stop-color="#06E775"/>
<stop offset="1" stop-color="#00F076"/>
</linearGradient>
</defs>
</svg>
