<svg width="100" height="26" viewBox="0 0 100 26" fill="none" xmlns="http://www.w3.org/2000/svg">
<path fill-rule="evenodd" clip-rule="evenodd" d="M31.9919 20.2836L33.2399 17.3836C34.5879 18.3916 36.3839 18.9156 38.1559 18.9156C39.4639 18.9156 40.2919 18.4116 40.2919 17.6476C40.2719 15.5116 32.4559 17.1836 32.3959 11.8276C32.3759 9.10764 34.7919 7.01164 38.2159 7.01164C40.2519 7.01164 42.2839 7.51564 43.7359 8.66364L42.5679 11.6236C41.2399 10.7756 39.5879 10.1716 38.0159 10.1716C36.9479 10.1716 36.2439 10.6756 36.2439 11.3196C36.2639 13.4156 44.1399 12.2676 44.2199 17.3836C44.2199 20.1636 41.8639 22.1196 38.4799 22.1196C35.9999 22.1156 33.7239 21.5316 31.9919 20.2836ZM79.9159 16.3356C79.2919 17.4236 78.1239 18.1676 76.7719 18.1676C74.7759 18.1676 73.1679 16.5556 73.1679 14.5636C73.1679 12.5716 74.7799 10.9596 76.7719 10.9596C78.1199 10.9596 79.2919 11.7036 79.9159 12.7916L83.3599 10.8796C82.0719 8.58364 79.5919 7.01164 76.7719 7.01164C72.5999 7.01164 69.2159 10.3956 69.2159 14.5676C69.2159 18.7396 72.5999 22.1236 76.7719 22.1236C79.6119 22.1236 82.0719 20.5716 83.3599 18.2556L79.9159 16.3356ZM45.9519 0.743652H50.2639V21.8356H45.9519V0.743652ZM85.0519 0.743652V21.8356H89.3639V15.5076L94.4799 21.8356H99.9999L93.4919 14.3196L99.5159 7.30764H94.2359L89.3599 13.1276V0.743652H85.0519Z" fill="black"/>
<path d="M63.0759 16.3758C62.4519 17.4038 61.1639 18.1678 59.7119 18.1678C57.7159 18.1678 56.1079 16.5558 56.1079 14.5638C56.1079 12.5718 57.7199 10.9598 59.7119 10.9598C61.1639 10.9598 62.4519 11.7638 63.0759 12.8118V16.3758ZM63.0759 7.31181V9.02381C62.3719 7.83581 60.6199 7.00781 58.7839 7.00781C54.9959 7.00781 52.0159 10.3518 52.0159 14.5438C52.0159 18.7358 54.9959 22.1198 58.7839 22.1198C60.6159 22.1198 62.3679 21.2958 63.0759 20.1038V21.8158H67.3879V7.31181H63.0759Z" fill="black"/>
<path fill-rule="evenodd" clip-rule="evenodd" d="M5.34002 16.3558C5.34002 17.8278 4.15202 19.0158 2.68002 19.0158C1.20802 19.0158 0.0200195 17.8238 0.0200195 16.3558C0.0200195 14.8878 1.20802 13.6958 2.68002 13.6958H5.34002V16.3558ZM6.66802 16.3558C6.66802 14.8838 7.85602 13.6958 9.32802 13.6958C10.8 13.6958 11.988 14.8838 11.988 16.3558V23.0038C11.988 24.4758 10.8 25.6638 9.32802 25.6638C7.85602 25.6638 6.66802 24.4758 6.66802 23.0038V16.3558Z" fill="#E01E5A"/>
<path fill-rule="evenodd" clip-rule="evenodd" d="M9.328 5.67988C7.856 5.67988 6.668 4.49187 6.668 3.01987C6.668 1.54787 7.856 0.359863 9.328 0.359863C10.8 0.359863 11.988 1.54787 11.988 3.01987V5.67988H9.328ZM9.328 7.02788C10.8 7.02788 11.988 8.21589 11.988 9.68789C11.988 11.1599 10.8 12.3479 9.328 12.3479H2.66C1.188 12.3479 0 11.1559 0 9.68789C0 8.21988 1.188 7.02788 2.66 7.02788H9.328Z" fill="#36C5F0"/>
<path fill-rule="evenodd" clip-rule="evenodd" d="M19.9839 9.68789C19.9839 8.21589 21.1719 7.02788 22.6439 7.02788C24.1159 7.02788 25.3039 8.21589 25.3039 9.68789C25.3039 11.1599 24.1159 12.3479 22.6439 12.3479H19.9839V9.68789ZM18.6559 9.68789C18.6559 11.1599 17.4679 12.3479 15.9959 12.3479C14.5239 12.3479 13.3359 11.1599 13.3359 9.68789V3.01987C13.3359 1.54787 14.5239 0.359863 15.9959 0.359863C17.4679 0.359863 18.6559 1.54787 18.6559 3.01987V9.68789Z" fill="#2EB67D"/>
<path fill-rule="evenodd" clip-rule="evenodd" d="M15.9959 20.3438C17.4679 20.3438 18.6559 21.5318 18.6559 23.0038C18.6559 24.4758 17.4679 25.6638 15.9959 25.6638C14.5239 25.6638 13.3359 24.4758 13.3359 23.0038V20.3438H15.9959ZM15.9959 19.0158C14.5239 19.0158 13.3359 17.8278 13.3359 16.3558C13.3359 14.8838 14.5239 13.6958 15.9959 13.6958H22.6639C24.1359 13.6958 25.3239 14.8838 25.3239 16.3558C25.3239 17.8278 24.1359 19.0158 22.6639 19.0158H15.9959Z" fill="#ECB22E"/>
</svg>
