<svg width="100" height="23" viewBox="0 0 100 23" fill="none" xmlns="http://www.w3.org/2000/svg">
<path d="M97.6225 0.0334394C98.3895 -0.00692553 99.1564 -0.00692553 99.9233 0.0132569C97.6225 4.81669 95.4025 9.66048 93.1622 14.4841H91.2852C90.2559 12.0622 89.045 9.70085 87.9753 7.27895C88.7221 7.25877 89.4688 7.25877 90.2156 7.27895C90.8614 8.77245 91.6284 10.2054 92.2136 11.6989C94.0099 7.8037 95.8667 3.92866 97.6225 0.0334394Z" fill="#FF0000"/>
<path d="M39.8402 2.0918C41.3135 2.11198 42.807 2.11198 44.2804 2.0918C44.2602 3.40366 44.2602 4.7357 44.2804 6.04756C42.807 6.02737 41.3135 6.04756 39.82 6.02737C39.8604 4.71551 39.82 3.40366 39.8402 2.0918V2.0918ZM17.4982 7.74288C20.5256 6.02737 24.9254 6.61266 26.9638 9.57948C28.2151 11.3354 28.5784 13.5554 28.5582 15.6544C25.0868 15.6746 21.6154 15.6544 18.144 15.6746C18.3055 16.7442 18.7697 17.8745 19.7586 18.4396C21.1714 19.2671 23.3915 19.0249 24.0979 17.3901C25.5308 17.3497 26.9436 17.3497 28.3766 17.3901C27.9326 19.0249 26.7418 20.4175 25.2483 21.1844C23.6337 22.0724 21.6962 22.2339 19.8999 21.9311C18.0028 21.6284 16.2469 20.5587 15.1772 18.9643C14.0066 17.269 13.7039 15.1095 13.9663 13.1114C14.2286 10.9115 15.5405 8.83273 17.4982 7.74288V7.74288ZM19.8596 10.2657C18.8706 10.7299 18.3862 11.7996 18.1642 12.8289H24.0979C23.9768 12.0417 23.6942 11.2143 23.0888 10.6693C22.2411 9.84185 20.8889 9.82167 19.8596 10.2657V10.2657ZM64.039 6.97595C66.4205 6.55212 69.0644 7.05668 70.901 8.71164C74.0293 11.4968 74.1706 16.8855 71.2643 19.8725C68.9635 22.2742 65.1087 22.7183 62.162 21.366C59.8814 20.3367 58.3274 18.0157 58.065 15.5535C57.9641 14.1205 58.0246 12.6472 58.6099 11.3152C59.4979 9.03456 61.6575 7.3796 64.039 6.97595V6.97595ZM64.5436 10.2657C63.2923 10.7097 62.707 12.0619 62.5253 13.2931C62.384 14.8269 62.4042 16.5626 63.3932 17.8341C64.4628 19.2267 66.8242 19.1863 67.8939 17.8139C68.7819 16.7039 68.9232 15.1902 68.8223 13.8178C68.7617 12.6068 68.3379 11.3152 67.3288 10.5684C66.5215 10.0235 65.4518 9.94277 64.5436 10.2657V10.2657ZM79.8823 7.80343C81.3556 6.65303 83.4546 6.53193 85.1499 7.21814C86.3608 7.74288 87.269 8.81255 87.6929 10.0437C88.1773 11.3152 88.036 12.6876 88.036 14.0196C88.036 16.5626 88.0158 19.1056 88.0562 21.6284C86.5828 21.6486 85.1095 21.6284 83.616 21.6486V12.9298C83.616 12.183 83.3335 11.3757 82.7078 10.9115C81.7592 10.2657 80.3868 10.3868 79.5795 11.1941C78.9337 11.8399 78.6511 12.7683 78.6713 13.6563V21.6486C77.2182 21.6284 75.7448 21.6486 74.2917 21.6284C74.2917 16.825 74.3119 12.0216 74.2917 7.21814C75.7247 7.23832 77.1374 7.19796 78.5704 7.23832C78.5502 7.90434 78.5502 8.57036 78.53 9.23638C78.974 8.752 79.3373 8.20708 79.8823 7.80343V7.80343ZM0 7.2585H4.60161C5.53 10.3464 6.51894 13.4343 7.38679 16.5424C8.45646 13.4949 9.26376 10.3464 10.2729 7.2585C11.7462 7.23832 13.2397 7.2585 14.713 7.23832C13.0177 12.0417 11.3627 16.8452 9.68759 21.6486C8.15372 21.6486 6.61985 21.6284 5.08599 21.6688C3.33011 16.8855 1.77606 12.0216 0 7.2585ZM29.5673 7.23832H33.8057C33.7855 8.04562 33.8057 8.85292 33.7653 9.66021C34.1286 9.25656 34.3909 8.752 34.7744 8.36854C35.723 7.31905 37.277 6.89522 38.6494 7.2585C38.6293 8.53 38.6293 9.80149 38.6494 11.0528C37.5596 10.9317 36.3486 10.9721 35.4203 11.6381C34.4313 12.3243 33.9873 13.5958 34.0075 14.7664C33.9873 17.0672 34.0075 19.3478 34.0075 21.6486C32.5342 21.6486 31.0407 21.6284 29.5673 21.6688C29.5875 16.8452 29.5875 12.0417 29.5673 7.23832V7.23832ZM39.8402 7.2585C41.3337 7.23832 42.807 7.2585 44.3005 7.23832C44.2804 12.0417 44.3005 16.8452 44.3005 21.6486C42.8272 21.6284 41.3337 21.6486 39.8402 21.6486V7.2585ZM45.4913 7.23832C49.5076 7.2585 53.5239 7.23832 57.5201 7.2585C57.4797 8.36854 57.5201 9.45839 57.4999 10.5684C57.3586 10.851 57.1164 11.0528 56.9348 11.295C54.8762 13.5756 52.8579 15.9168 50.7589 18.1772C53.1203 18.2176 55.4816 18.1772 57.843 18.1974V21.6688C53.7258 21.6486 49.6085 21.6486 45.4913 21.6688V18.3185C47.6508 15.8966 49.7902 13.4949 51.9699 11.0932C52.0304 10.9721 52.2928 10.851 52.1515 10.6895C49.9315 10.7501 47.7114 10.6895 45.4913 10.7299V7.23832V7.23832Z" fill="black"/>
</svg>
