<svg width="20" height="19" viewBox="0 0 20 19" fill="none" xmlns="http://www.w3.org/2000/svg">
<circle cx="10.1641" cy="9.5" r="9.5" fill="#DFE3FF"/>
<path d="M14.3438 9.2739H12.7448C12.7278 8.97981 12.6883 8.68745 12.6265 8.39937C12.5657 8.1116 12.4815 7.8292 12.375 7.55495H13.8633C13.8699 7.55408 13.8766 7.55541 13.8824 7.55874C13.8882 7.56206 13.8927 7.5672 13.8952 7.57334C14.0804 7.93976 14.2107 8.33131 14.2817 8.73547C14.3104 8.89589 14.33 9.05778 14.3404 9.22039C14.3401 9.22707 14.3401 9.23377 14.3404 9.24045V9.2739H14.3438Z" fill="#40196D"/>
<path d="M14.3434 9.75051C14.3434 9.7781 14.3383 9.80569 14.3358 9.83411C14.3076 10.2373 14.2182 10.6339 14.0709 11.0105C14.0264 11.1258 13.9728 11.2379 13.9241 11.3516C13.9224 11.3567 13.919 11.3611 13.9144 11.364C13.9098 11.3669 13.9044 11.3681 13.899 11.3675H12.435H12.4165C12.5155 11.1016 12.5926 10.8281 12.6471 10.5498C12.7014 10.2718 12.7342 9.99004 12.7452 9.70703H14.3434V9.75051Z" fill="#40196D"/>
<path d="M10.6566 5.31958L10.7656 5.3363C11.0272 5.37454 11.2847 5.43724 11.5345 5.52358C11.9021 5.65039 12.2498 5.82827 12.5675 6.05197C12.9758 6.33391 13.3266 6.69053 13.6014 7.10291L13.6148 7.12465H13.5956H12.1936C12.1875 7.12508 12.1814 7.12341 12.1763 7.11991C12.1713 7.11641 12.1676 7.11129 12.1659 7.10542C12.0134 6.8039 11.8308 6.51847 11.6209 6.25347C11.3917 5.96877 11.1255 5.71573 10.8293 5.50101C10.7698 5.45669 10.7078 5.4174 10.6474 5.37225L10.6306 5.36055L10.6499 5.34633L10.6398 5.31958H10.6566Z" fill="#40196D"/>
<path d="M10.3245 7.556H11.8405C11.8481 7.55489 11.8558 7.55656 11.8623 7.56071C11.8688 7.56486 11.8735 7.5712 11.8757 7.57857C12.0274 7.92663 12.1369 8.29151 12.2019 8.66546C12.2356 8.85911 12.2582 9.0545 12.2698 9.2507C12.2698 9.2507 12.2698 9.25656 12.2698 9.26074H10.3245V7.556Z" fill="#40196D"/>
<path d="M10.3123 11.3667V9.71631H12.2601C12.2601 9.75226 12.2601 9.78737 12.2551 9.82249C12.2352 10.133 12.1858 10.441 12.1075 10.7422C12.0535 10.9487 11.986 11.1514 11.9054 11.3491C11.904 11.3548 11.9006 11.3597 11.8958 11.3629C11.891 11.3661 11.8852 11.3675 11.8794 11.3667H10.3123Z" fill="#40196D"/>
<path d="M7.97852 9.27338C7.98439 9.1998 7.98858 9.1279 7.99612 9.056C8.0145 8.876 8.04249 8.69711 8.07997 8.52008C8.14677 8.19851 8.2468 7.8847 8.37848 7.58369C8.38018 7.57855 8.38362 7.57416 8.38821 7.57126C8.3928 7.56836 8.39825 7.56714 8.40364 7.5678H9.88359V9.27338H7.97852Z" fill="#40196D"/>
<path d="M9.88348 11.3675H8.36412C8.35653 11.3684 8.34888 11.3665 8.34257 11.3622C8.33625 11.3579 8.3317 11.3515 8.32974 11.3441C8.2003 11.0307 8.10582 10.7041 8.04801 10.3701C8.01093 10.1573 7.98796 9.9422 7.97925 9.72634C7.97925 9.72634 7.97925 9.72049 7.97925 9.71631H9.88264V11.3675H9.88348Z" fill="#40196D"/>
<path d="M7.868 7.55566C7.84787 7.61084 7.82775 7.66268 7.8093 7.71452C7.63328 8.20666 7.52826 8.72125 7.49738 9.24284C7.49798 9.24573 7.4978 9.24872 7.49687 9.25151C7.49594 9.25431 7.49428 9.25681 7.49207 9.25876C7.48986 9.26071 7.48717 9.26205 7.48427 9.26263C7.48137 9.26321 7.47838 9.26302 7.47558 9.26207H5.98389C5.98389 9.21776 5.98976 9.17847 5.99311 9.13248C6.02109 8.82278 6.08238 8.51698 6.1759 8.22034C6.24575 7.99962 6.33208 7.78443 6.43416 7.57657C6.43603 7.57084 6.43977 7.56592 6.44479 7.56258C6.44981 7.55924 6.45582 7.55769 6.46183 7.55817H7.868V7.55566Z" fill="#40196D"/>
<path d="M7.82345 11.3677H6.43573C6.42803 11.3686 6.42023 11.3669 6.41365 11.3628C6.40708 11.3587 6.40214 11.3524 6.39968 11.3451C6.22825 10.9861 6.10774 10.6051 6.04164 10.2131C6.01423 10.0511 5.9952 9.88786 5.98462 9.72396C5.98462 9.71811 5.98462 9.71309 5.98462 9.70557H7.49392C7.51594 10.2734 7.62713 10.8342 7.82345 11.3677Z" fill="#40196D"/>
<path d="M10.6306 13.6593L10.6969 13.6133C10.9972 13.4051 11.2707 13.1608 11.511 12.8859C11.786 12.5689 12.0186 12.2176 12.2028 11.8408C12.2065 11.8292 12.2144 11.8194 12.2249 11.8132C12.2354 11.807 12.2479 11.805 12.2598 11.8074H13.6643C13.6425 11.8408 13.6232 11.8709 13.6031 11.901C13.4699 12.0943 13.3213 12.2766 13.1587 12.4461C12.9333 12.681 12.6799 12.8874 12.404 13.0606C12.1253 13.2387 11.8261 13.3824 11.5127 13.4887C11.2579 13.5759 10.995 13.6375 10.7279 13.6726L10.6843 13.6793C10.6744 13.6804 10.6644 13.6791 10.6551 13.6757C10.6457 13.6722 10.6374 13.6666 10.6306 13.6593Z" fill="#40196D"/>
<path d="M9.60733 13.6634C9.59312 13.665 9.57878 13.665 9.56457 13.6634C8.78634 13.5551 8.05545 13.227 7.45826 12.7178C7.15119 12.458 6.88643 12.1523 6.67342 11.8115L6.66504 11.7956H7.984C7.99201 11.7948 8.00007 11.7966 8.00691 11.8008C8.01375 11.8051 8.01897 11.8115 8.02173 11.819C8.17018 12.1209 8.34944 12.4066 8.55669 12.6718C8.73798 12.9011 8.93916 13.114 9.1579 13.3081C9.29609 13.4313 9.44231 13.5452 9.5956 13.6492L9.60398 13.655V13.6634H9.60733Z" fill="#40196D"/>
<path d="M9.58287 5.33471L9.603 5.35728L9.55772 5.38822C9.2657 5.59476 8.99817 5.83374 8.76031 6.10055C8.48792 6.39882 8.25797 6.73304 8.07693 7.09379C8.07435 7.10082 8.06947 7.10679 8.06309 7.11073C8.0567 7.11467 8.04917 7.11636 8.04171 7.11553H6.7085C7.41787 6.11392 8.36956 5.51279 9.58036 5.32886L9.58287 5.33471Z" fill="#40196D"/>
<path d="M11.6923 11.8101C11.3529 12.4072 10.8811 12.9191 10.313 13.3066V11.8101H11.6923Z" fill="#40196D"/>
<path d="M8.55957 11.8093H9.88356V13.2766C9.33256 12.8982 8.87893 12.3955 8.55957 11.8093Z" fill="#40196D"/>
<path d="M11.6477 7.11268H10.3237V5.71729C10.8667 6.07483 11.3198 6.55231 11.6477 7.11268Z" fill="#40196D"/>
<path d="M9.88396 5.7605V7.12579H8.61279C8.92342 6.5777 9.35884 6.11004 9.88396 5.7605Z" fill="#40196D"/>
</svg>
